<?xml version="1.0" standalone="no"?>
<!DOCTYPE svg PUBLIC "-//W3C//DTD SVG 20010904//EN"
 "http://www.w3.org/TR/2001/REC-SVG-20010904/DTD/svg10.dtd">
<svg version="1.0" xmlns="http://www.w3.org/2000/svg"
 width="512.000000pt" height="512.000000pt" viewBox="0 0 512.000000 512.000000"
 preserveAspectRatio="xMidYMid meet">

<g transform="translate(0.000000,512.000000) scale(0.100000,-0.100000)"
fill="#000000" stroke="none">
<path d="M1754 4637 c-717 -310 -1196 -949 -1299 -1731 -17 -136 -20 -394 -4
-534 59 -534 333 -1067 723 -1402 412 -354 911 -540 1451 -540 836 0 1593 463
1960 1199 76 152 105 232 105 289 -1 98 -68 181 -166 203 -47 11 -60 9 -155
-20 -250 -75 -408 -96 -639 -88 -287 10 -508 68 -768 202 -341 174 -606 447
-777 800 -205 423 -237 875 -95 1330 47 151 31 237 -59 300 -34 24 -54 30
-109 33 -61 2 -77 -1 -168 -41z"/>
</g>
</svg>
